<svg xmlns="http://www.w3.org/2000/svg" viewBox="-1.5 -1.5 48 48" fill="none" stroke="#000000" stroke-linecap="round" stroke-linejoin="round" id="Brain--Streamline-Lucide" height="48" width="48">
  <desc>
    Brain Streamline Icon: https://streamlinehq.com
  </desc>
  <path d="M22.5 9.375a5.625 5.625 0 1 0 -11.244375 0.234375 7.5 7.5 0 0 0 -4.73625 10.81875 7.5 7.5 0 0 0 1.0425 12.352500000000001A7.5 7.5 0 1 0 22.5 33.75Z" stroke-width="3"></path>
  <path d="M22.5 9.375a5.625 5.625 0 1 1 11.244375 0.234375 7.5 7.5 0 0 1 4.73625 10.81875 7.5 7.5 0 0 1 -1.0425 12.352500000000001A7.5 7.5 0 1 1 22.5 33.75Z" stroke-width="3"></path>
  <path d="M28.125 24.375a8.4375 8.4375 0 0 1 -5.625 -7.5 8.4375 8.4375 0 0 1 -5.625 7.5" stroke-width="3"></path>
  <path d="M32.998125 12.1875a5.625 5.625 0 0 0 0.748125 -2.578125" stroke-width="3"></path>
  <path d="M11.255625 9.609375A5.625 5.625 0 0 0 12.001875 12.1875" stroke-width="3"></path>
  <path d="M6.519375 20.43a7.5 7.5 0 0 1 1.0968749999999998 -0.7425" stroke-width="3"></path>
  <path d="M37.38375 19.6875a7.5 7.5 0 0 1 1.0968749999999998 0.7425" stroke-width="3"></path>
  <path d="M11.25 33.75a7.5 7.5 0 0 1 -3.6881250000000003 -0.9675" stroke-width="3"></path>
  <path d="M37.438125 32.782500000000006A7.5 7.5 0 0 1 33.75 33.75" stroke-width="3"></path>
</svg>