<svg xmlns="http://www.w3.org/2000/svg" viewBox="-1.5 -1.5 48 48" fill="none" stroke="#000000" stroke-linecap="round" stroke-linejoin="round" id="Pen-Tool--Streamline-Lucide" height="48" width="48">
  <desc>
    Pen Tool Streamline Icon: https://streamlinehq.com
  </desc>
  <path d="M29.450625000000002 39.924375a1.875 1.875 0 0 1 -2.6512499999999997 0l-2.9737500000000003 -2.9737500000000003a1.875 1.875 0 0 1 0 -2.6512499999999997l10.47375 -10.47375a1.875 1.875 0 0 1 2.6512499999999997 0l2.9737500000000003 2.9737500000000003a1.875 1.875 0 0 1 0 2.6512499999999997z" stroke-width="3"></path>
  <path d="m33.75 24.375 -2.578125 -12.88875a1.875 1.875 0 0 0 -1.39875 -1.455L6.065625 3.8025a1.875 1.875 0 0 0 -2.263125 2.263125L10.03125 29.773125a1.875 1.875 0 0 0 1.455 1.39875L24.375 33.75" stroke-width="3"></path>
  <path d="m4.3125 4.3125 13.661249999999999 13.661249999999999" stroke-width="3"></path>
  <path d="M16.875 20.625a3.75 3.75 0 1 0 7.5 0 3.75 3.75 0 1 0 -7.5 0" stroke-width="3"></path>
</svg>