<svg width="378" height="109" viewBox="0 0 378 109" fill="none" xmlns="http://www.w3.org/2000/svg">
<g clip-path="url(#clip0_5_2)">
<path d="M83.8571 102.429H66.9184L57.7347 90.6939C54.1633 91.8163 50.1837 92.4286 45.898 92.4286C24.4694 92.4286 10.3878 77.2245 10.3878 58.1429C10.3878 39.1633 24.4694 23.9592 45.898 23.9592C67.2245 23.9592 81.3061 39.1633 81.3061 58.1429C81.3061 68.6531 77.0204 78.0408 69.5714 84.3673L83.8571 102.429ZM24.8775 58.1429C24.8775 69.6735 32.8367 79.9796 45.898 79.9796C58.7551 79.9796 66.8163 69.6735 66.8163 58.1429C66.8163 46.6122 58.7551 36.5102 45.898 36.5102C32.8367 36.5102 24.8775 46.6122 24.8775 58.1429ZM138.62 91L133.62 76.9184H107.906L102.906 91H87.804L113.62 25.6939H128.008L153.722 91H138.62ZM111.58 66.3061H129.947L120.763 40.2857L111.58 66.3061ZM220.117 25.6939H232.77V91H219.198V47.7347L197.974 75.6939L176.749 47.7347V91H163.178V25.6939H175.831L197.974 56.9184L220.117 25.6939ZM293.113 91L288.113 76.9184H262.398L257.398 91H242.296L268.113 25.6939H282.5L308.215 91H293.113ZM266.072 66.3061H284.439L275.255 40.2857L266.072 66.3061ZM352.772 91L335.425 65.1837H331.752V91H317.67V25.6939H341.14C352.772 25.6939 364.201 32.2245 364.201 45.4898C364.201 55.1837 357.874 60.898 349.507 63.551L369.915 91H352.772ZM331.752 36.3061V54.7755H338.18C345.629 54.7755 349.711 51.5102 349.711 45.6939C349.711 39.9796 345.629 36.3061 337.67 36.3061H331.752Z" fill="currentColor"/>
</g>
<defs>
<clipPath id="clip0_5_2">
<rect width="378" height="109" fill="white"/>
</clipPath>
</defs>
</svg>
