<svg width="360" height="79" viewBox="0 0 360 79" fill="black" xmlns="http://www.w3.org/2000/svg">
<path d="M73.4694 78.4694H56.5306L47.3469 66.7347C43.7755 67.8571 39.7959 68.4694 35.5102 68.4694C14.0816 68.4694 -1.40071e-06 53.2653 -1.40071e-06 34.1837C-1.40071e-06 15.2041 14.0816 4.29153e-06 35.5102 4.29153e-06C56.8367 4.29153e-06 70.9184 15.2041 70.9184 34.1837C70.9184 44.6939 66.6327 54.0816 59.1837 60.4082L73.4694 78.4694ZM14.4898 34.1837C14.4898 45.7143 22.449 56.0204 35.5102 56.0204C48.3673 56.0204 56.4286 45.7143 56.4286 34.1837C56.4286 22.6531 48.3673 12.551 35.5102 12.551C22.449 12.551 14.4898 22.6531 14.4898 34.1837ZM128.233 67.0408L123.233 52.9592H97.5183L92.5183 67.0408H77.4163L103.233 1.7347H117.62L143.335 67.0408H128.233ZM101.192 42.3469H119.559L110.375 16.3265L101.192 42.3469ZM209.729 1.7347H222.382V67.0408H208.811V23.7755L187.586 51.7347L166.362 23.7755V67.0408H152.79V1.7347H165.443L187.586 32.9592L209.729 1.7347ZM282.725 67.0408L277.725 52.9592H252.011L247.011 67.0408H231.908L257.725 1.7347H272.113L297.827 67.0408H282.725ZM255.684 42.3469H274.051L264.868 16.3265L255.684 42.3469ZM342.384 67.0408L325.037 41.2245H321.364V67.0408H307.282V1.7347H330.752C342.384 1.7347 353.813 8.26531 353.813 21.5306C353.813 31.2245 347.486 36.9388 339.119 39.5918L359.527 67.0408H342.384ZM321.364 12.3469V30.8163H327.793C335.242 30.8163 339.323 27.551 339.323 21.7347C339.323 16.0204 335.242 12.3469 327.282 12.3469H321.364Z" fill="#ffffff"/>
</svg>
